<svg xmlns="http://www.w3.org/2000/svg" xmlns:xlink="http://www.w3.org/1999/xlink" viewBox="0 0 1768 417" preserveAspectRatio="xMidYMid" style="display: block; shape-rendering: auto; background: rgb(11, 19, 29);" width="1768" height="417"><style type="text/css">
  .ld-text text {
    text-anchor: middle;
    dominant-baseline: middle;
    font-size: 80px;
    opacity: 0;
    user-select: none;
    pointer-events: none;
  }
</style>
<g style="transform-origin:884px 208.5px;transform:scale(1)" class="ld-text">
<style type="text/css">
  @keyframes ld-speed-dash {
    0% { transform: translate(0,-625.5px); }
    100% { transform: translate(0,625.5px); }
  }
  .ld.ld-speed-dash-1 {
    animation: ld-speed-dash 5s linear infinite;
  }
  .ld.ld-speed-dash-2 {
    animation: ld-speed-dash 10s linear infinite;
  }
</style>
  <g transform="translate(884,208.5)">
    <g style="transform:rotate(62deg)">
      <g class="ld ld-speed-dash-1"><line stroke-linecap="round" stroke-width="2.7013279450387806" stroke="#009090" y2="1762.9639166814418" y1="1350.4869806192123" x2="314.8189635559022" x1="314.8189635559022"></line><line stroke-linecap="round" stroke-width="2.7013279450387806" stroke="#009090" y2="1137.4639166814418" y1="724.9869806192123" x2="314.8189635559022" x1="314.8189635559022"></line><line stroke-linecap="round" stroke-width="2.7013279450387806" stroke="#009090" y2="511.96391668144184" y1="99.48698061921233" x2="314.8189635559022" x1="314.8189635559022"></line><line stroke-linecap="round" stroke-width="2.7013279450387806" stroke="#009090" y2="-113.53608331855816" y1="-526.0130193807877" x2="314.8189635559022" x1="314.8189635559022"></line><line stroke-linecap="round" stroke-width="2.7013279450387806" stroke="#009090" y2="-739.0360833185582" y1="-1151.5130193807877" x2="314.8189635559022" x1="314.8189635559022"></line><line stroke-linecap="round" stroke-width="3.8687392184464153" stroke="#009090" y2="1484.3633727856648" y1="1339.0042224390818" x2="833.9194074595553" x1="833.9194074595553"></line><line stroke-linecap="round" stroke-width="3.8687392184464153" stroke="#009090" y2="858.8633727856648" y1="713.5042224390818" x2="833.9194074595553" x1="833.9194074595553"></line><line stroke-linecap="round" stroke-width="3.8687392184464153" stroke="#009090" y2="233.3633727856648" y1="88.00422243908176" x2="833.9194074595553" x1="833.9194074595553"></line><line stroke-linecap="round" stroke-width="3.8687392184464153" stroke="#009090" y2="-392.1366272143352" y1="-537.4957775609182" x2="833.9194074595553" x1="833.9194074595553"></line><line stroke-linecap="round" stroke-width="3.8687392184464153" stroke="#009090" y2="-1017.6366272143352" y1="-1162.9957775609182" x2="833.9194074595553" x1="833.9194074595553"></line><line stroke-linecap="round" stroke-width="3.133651529238638" stroke="#009090" y2="1360.566313880245" y1="1212.106923052551" x2="131.36812842279318" x1="131.36812842279318"></line><line stroke-linecap="round" stroke-width="3.133651529238638" stroke="#009090" y2="735.066313880245" y1="586.6069230525511" x2="131.36812842279318" x1="131.36812842279318"></line><line stroke-linecap="round" stroke-width="3.133651529238638" stroke="#009090" y2="109.56631388024503" y1="-38.893076947448876" x2="131.36812842279318" x1="131.36812842279318"></line><line stroke-linecap="round" stroke-width="3.133651529238638" stroke="#009090" y2="-515.933686119755" y1="-664.3930769474489" x2="131.36812842279318" x1="131.36812842279318"></line><line stroke-linecap="round" stroke-width="3.133651529238638" stroke="#009090" y2="-1141.433686119755" y1="-1289.893076947449" x2="131.36812842279318" x1="131.36812842279318"></line><line stroke-linecap="round" stroke-width="0.07559143208640555" stroke="#009090" y2="1409.7065922636625" y1="1035.3572964132848" x2="609.8223004384191" x1="609.8223004384191"></line><line stroke-linecap="round" stroke-width="0.07559143208640555" stroke="#009090" y2="784.2065922636624" y1="409.85729641328476" x2="609.8223004384191" x1="609.8223004384191"></line><line stroke-linecap="round" stroke-width="0.07559143208640555" stroke="#009090" y2="158.7065922636624" y1="-215.64270358671524" x2="609.8223004384191" x1="609.8223004384191"></line><line stroke-linecap="round" stroke-width="0.07559143208640555" stroke="#009090" y2="-466.7934077363376" y1="-841.1427035867152" x2="609.8223004384191" x1="609.8223004384191"></line><line stroke-linecap="round" stroke-width="0.07559143208640555" stroke="#009090" y2="-1092.2934077363375" y1="-1466.6427035867152" x2="609.8223004384191" x1="609.8223004384191"></line><line stroke-linecap="round" stroke-width="2.5352075148662183" stroke="#009090" y2="1709.7115614430681" y1="1369.680804655789" x2="726.7403626848418" x1="726.7403626848418"></line><line stroke-linecap="round" stroke-width="2.5352075148662183" stroke="#009090" y2="1084.2115614430681" y1="744.1808046557891" x2="726.7403626848418" x1="726.7403626848418"></line><line stroke-linecap="round" stroke-width="2.5352075148662183" stroke="#009090" y2="458.71156144306815" y1="118.68080465578903" x2="726.7403626848418" x1="726.7403626848418"></line><line stroke-linecap="round" stroke-width="2.5352075148662183" stroke="#009090" y2="-166.78843855693185" y1="-506.819195344211" x2="726.7403626848418" x1="726.7403626848418"></line><line stroke-linecap="round" stroke-width="2.5352075148662183" stroke="#009090" y2="-792.2884385569319" y1="-1132.319195344211" x2="726.7403626848418" x1="726.7403626848418"></line><line stroke-linecap="round" stroke-width="0.9469824788029915" stroke="#009090" y2="1402.693275507373" y1="1032.8319451192622" x2="-771.4271814082233" x1="-771.4271814082233"></line><line stroke-linecap="round" stroke-width="0.9469824788029915" stroke="#009090" y2="777.193275507373" y1="407.33194511926223" x2="-771.4271814082233" x1="-771.4271814082233"></line><line stroke-linecap="round" stroke-width="0.9469824788029915" stroke="#009090" y2="151.69327550737296" y1="-218.16805488073777" x2="-771.4271814082233" x1="-771.4271814082233"></line><line stroke-linecap="round" stroke-width="0.9469824788029915" stroke="#009090" y2="-473.80672449262704" y1="-843.6680548807378" x2="-771.4271814082233" x1="-771.4271814082233"></line><line stroke-linecap="round" stroke-width="0.9469824788029915" stroke="#009090" y2="-1099.306724492627" y1="-1469.1680548807378" x2="-771.4271814082233" x1="-771.4271814082233"></line><line stroke-linecap="round" stroke-width="1.2598184539662547" stroke="#009090" y2="1590.99402405398" y1="1289.3929530813218" x2="17.6622505337594" x1="17.6622505337594"></line><line stroke-linecap="round" stroke-width="1.2598184539662547" stroke="#009090" y2="965.49402405398" y1="663.8929530813219" x2="17.6622505337594" x1="17.6622505337594"></line><line stroke-linecap="round" stroke-width="1.2598184539662547" stroke="#009090" y2="339.9940240539799" y1="38.39295308132192" x2="17.6622505337594" x1="17.6622505337594"></line><line stroke-linecap="round" stroke-width="1.2598184539662547" stroke="#009090" y2="-285.5059759460201" y1="-587.1070469186781" x2="17.6622505337594" x1="17.6622505337594"></line><line stroke-linecap="round" stroke-width="1.2598184539662547" stroke="#009090" y2="-911.00597594602" y1="-1212.6070469186782" x2="17.6622505337594" x1="17.6622505337594"></line><line stroke-linecap="round" stroke-width="0.6515580642075147" stroke="#009090" y2="1484.4023497135945" y1="1055.934551019099" x2="817.356924816102" x1="817.356924816102"></line><line stroke-linecap="round" stroke-width="0.6515580642075147" stroke="#009090" y2="858.9023497135945" y1="430.434551019099" x2="817.356924816102" x1="817.356924816102"></line><line stroke-linecap="round" stroke-width="0.6515580642075147" stroke="#009090" y2="233.40234971359456" y1="-195.065448980901" x2="817.356924816102" x1="817.356924816102"></line><line stroke-linecap="round" stroke-width="0.6515580642075147" stroke="#009090" y2="-392.09765028640544" y1="-820.565448980901" x2="817.356924816102" x1="817.356924816102"></line><line stroke-linecap="round" stroke-width="0.6515580642075147" stroke="#009090" y2="-1017.5976502864055" y1="-1446.065448980901" x2="817.356924816102" x1="817.356924816102"></line><line stroke-linecap="round" stroke-width="4.718338885324736" stroke="#009090" y2="1618.2494549126568" y1="1284.0878831572145" x2="-351.40976891445996" x1="-351.40976891445996"></line><line stroke-linecap="round" stroke-width="4.718338885324736" stroke="#009090" y2="992.7494549126567" y1="658.5878831572144" x2="-351.40976891445996" x1="-351.40976891445996"></line><line stroke-linecap="round" stroke-width="4.718338885324736" stroke="#009090" y2="367.2494549126567" y1="33.08788315721441" x2="-351.40976891445996" x1="-351.40976891445996"></line><line stroke-linecap="round" stroke-width="4.718338885324736" stroke="#009090" y2="-258.2505450873433" y1="-592.4121168427856" x2="-351.40976891445996" x1="-351.40976891445996"></line><line stroke-linecap="round" stroke-width="4.718338885324736" stroke="#009090" y2="-883.7505450873433" y1="-1217.9121168427855" x2="-351.40976891445996" x1="-351.40976891445996"></line><line stroke-linecap="round" stroke-width="1.3667537167364632" stroke="#009090" y2="1402.0846969206777" y1="992.0056683379205" x2="-334.50866069284353" x1="-334.50866069284353"></line><line stroke-linecap="round" stroke-width="1.3667537167364632" stroke="#009090" y2="776.5846969206779" y1="366.50566833792055" x2="-334.50866069284353" x1="-334.50866069284353"></line><line stroke-linecap="round" stroke-width="1.3667537167364632" stroke="#009090" y2="151.08469692067786" y1="-258.99433166207945" x2="-334.50866069284353" x1="-334.50866069284353"></line><line stroke-linecap="round" stroke-width="1.3667537167364632" stroke="#009090" y2="-474.41530307932214" y1="-884.4943316620795" x2="-334.50866069284353" x1="-334.50866069284353"></line><line stroke-linecap="round" stroke-width="1.3667537167364632" stroke="#009090" y2="-1099.9153030793223" y1="-1509.9943316620795" x2="-334.50866069284353" x1="-334.50866069284353"></line><line stroke-linecap="round" stroke-width="2.329817644850628" stroke="#009090" y2="1707.2189208010698" y1="1382.4454768597252" x2="569.8766789994371" x1="569.8766789994371"></line><line stroke-linecap="round" stroke-width="2.329817644850628" stroke="#009090" y2="1081.7189208010698" y1="756.9454768597251" x2="569.8766789994371" x1="569.8766789994371"></line><line stroke-linecap="round" stroke-width="2.329817644850628" stroke="#009090" y2="456.2189208010697" y1="131.4454768597251" x2="569.8766789994371" x1="569.8766789994371"></line><line stroke-linecap="round" stroke-width="2.329817644850628" stroke="#009090" y2="-169.28107919893029" y1="-494.0545231402749" x2="569.8766789994371" x1="569.8766789994371"></line><line stroke-linecap="round" stroke-width="2.329817644850628" stroke="#009090" y2="-794.7810791989302" y1="-1119.5545231402748" x2="569.8766789994371" x1="569.8766789994371"></line><line stroke-linecap="round" stroke-width="1.7390151778554666" stroke="#009090" y2="1720.643641492894" y1="1359.6172512548171" x2="-446.1574917402226" x1="-446.1574917402226"></line><line stroke-linecap="round" stroke-width="1.7390151778554666" stroke="#009090" y2="1095.143641492894" y1="734.1172512548171" x2="-446.1574917402226" x1="-446.1574917402226"></line><line stroke-linecap="round" stroke-width="1.7390151778554666" stroke="#009090" y2="469.64364149289395" y1="108.6172512548171" x2="-446.1574917402226" x1="-446.1574917402226"></line><line stroke-linecap="round" stroke-width="1.7390151778554666" stroke="#009090" y2="-155.85635850710605" y1="-516.8827487451829" x2="-446.1574917402226" x1="-446.1574917402226"></line><line stroke-linecap="round" stroke-width="1.7390151778554666" stroke="#009090" y2="-781.356358507106" y1="-1142.3827487451829" x2="-446.1574917402226" x1="-446.1574917402226"></line><line stroke-linecap="round" stroke-width="2.170374003868592" stroke="#009090" y2="1205.9794490694876" y1="1031.4839784457852" x2="-711.1881046535741" x1="-711.1881046535741"></line><line stroke-linecap="round" stroke-width="2.170374003868592" stroke="#009090" y2="580.4794490694875" y1="405.98397844578517" x2="-711.1881046535741" x1="-711.1881046535741"></line><line stroke-linecap="round" stroke-width="2.170374003868592" stroke="#009090" y2="-45.0205509305125" y1="-219.51602155421486" x2="-711.1881046535741" x1="-711.1881046535741"></line><line stroke-linecap="round" stroke-width="2.170374003868592" stroke="#009090" y2="-670.5205509305125" y1="-845.0160215542148" x2="-711.1881046535741" x1="-711.1881046535741"></line><line stroke-linecap="round" stroke-width="2.170374003868592" stroke="#009090" y2="-1296.0205509305124" y1="-1470.5160215542148" x2="-711.1881046535741" x1="-711.1881046535741"></line><line stroke-linecap="round" stroke-width="1.1548372708263173" stroke="#009090" y2="1351.6149125183442" y1="1153.6678910040355" x2="547.2117525915345" x1="547.2117525915345"></line><line stroke-linecap="round" stroke-width="1.1548372708263173" stroke="#009090" y2="726.1149125183442" y1="528.1678910040354" x2="547.2117525915345" x1="547.2117525915345"></line><line stroke-linecap="round" stroke-width="1.1548372708263173" stroke="#009090" y2="100.6149125183442" y1="-97.33210899596459" x2="547.2117525915345" x1="547.2117525915345"></line><line stroke-linecap="round" stroke-width="1.1548372708263173" stroke="#009090" y2="-524.8850874816558" y1="-722.8321089959646" x2="547.2117525915345" x1="547.2117525915345"></line><line stroke-linecap="round" stroke-width="1.1548372708263173" stroke="#009090" y2="-1150.3850874816558" y1="-1348.3321089959645" x2="547.2117525915345" x1="547.2117525915345"></line><line stroke-linecap="round" stroke-width="0.9107721337307851" stroke="#009090" y2="1775.142143568691" y1="1385.2065037223658" x2="-568.5206223182195" x1="-568.5206223182195"></line><line stroke-linecap="round" stroke-width="0.9107721337307851" stroke="#009090" y2="1149.642143568691" y1="759.7065037223658" x2="-568.5206223182195" x1="-568.5206223182195"></line><line stroke-linecap="round" stroke-width="0.9107721337307851" stroke="#009090" y2="524.1421435686909" y1="134.20650372236582" x2="-568.5206223182195" x1="-568.5206223182195"></line><line stroke-linecap="round" stroke-width="0.9107721337307851" stroke="#009090" y2="-101.35785643130907" y1="-491.2934962776342" x2="-568.5206223182195" x1="-568.5206223182195"></line><line stroke-linecap="round" stroke-width="0.9107721337307851" stroke="#009090" y2="-726.8578564313091" y1="-1116.7934962776342" x2="-568.5206223182195" x1="-568.5206223182195"></line><line stroke-linecap="round" stroke-width="1.4714781868445816" stroke="#009090" y2="1552.5668408574713" y1="1404.7938208788917" x2="-583.3644901373801" x1="-583.3644901373801"></line><line stroke-linecap="round" stroke-width="1.4714781868445816" stroke="#009090" y2="927.0668408574713" y1="779.2938208788917" x2="-583.3644901373801" x1="-583.3644901373801"></line><line stroke-linecap="round" stroke-width="1.4714781868445816" stroke="#009090" y2="301.5668408574714" y1="153.79382087889167" x2="-583.3644901373801" x1="-583.3644901373801"></line><line stroke-linecap="round" stroke-width="1.4714781868445816" stroke="#009090" y2="-323.9331591425286" y1="-471.70617912110833" x2="-583.3644901373801" x1="-583.3644901373801"></line><line stroke-linecap="round" stroke-width="1.4714781868445816" stroke="#009090" y2="-949.4331591425287" y1="-1097.2061791211083" x2="-583.3644901373801" x1="-583.3644901373801"></line><line stroke-linecap="round" stroke-width="2.564891978403411" stroke="#009090" y2="1655.9554420368863" y1="1509.7428093813542" x2="681.0503580225577" x1="681.0503580225577"></line><line stroke-linecap="round" stroke-width="2.564891978403411" stroke="#009090" y2="1030.4554420368863" y1="884.2428093813542" x2="681.0503580225577" x1="681.0503580225577"></line><line stroke-linecap="round" stroke-width="2.564891978403411" stroke="#009090" y2="404.95544203688627" y1="258.7428093813541" x2="681.0503580225577" x1="681.0503580225577"></line><line stroke-linecap="round" stroke-width="2.564891978403411" stroke="#009090" y2="-220.54455796311373" y1="-366.7571906186459" x2="681.0503580225577" x1="681.0503580225577"></line><line stroke-linecap="round" stroke-width="2.564891978403411" stroke="#009090" y2="-846.0445579631137" y1="-992.2571906186458" x2="681.0503580225577" x1="681.0503580225577"></line><line stroke-linecap="round" stroke-width="4.146439451956129" stroke="#009090" y2="1823.6043782403383" y1="1476.8147495873534" x2="-392.9542889469855" x1="-392.9542889469855"></line><line stroke-linecap="round" stroke-width="4.146439451956129" stroke="#009090" y2="1198.1043782403383" y1="851.3147495873534" x2="-392.9542889469855" x1="-392.9542889469855"></line><line stroke-linecap="round" stroke-width="4.146439451956129" stroke="#009090" y2="572.6043782403383" y1="225.81474958735342" x2="-392.9542889469855" x1="-392.9542889469855"></line><line stroke-linecap="round" stroke-width="4.146439451956129" stroke="#009090" y2="-52.89562175966171" y1="-399.6852504126466" x2="-392.9542889469855" x1="-392.9542889469855"></line><line stroke-linecap="round" stroke-width="4.146439451956129" stroke="#009090" y2="-678.3956217596617" y1="-1025.1852504126466" x2="-392.9542889469855" x1="-392.9542889469855"></line><line stroke-linecap="round" stroke-width="1.341021875866054" stroke="#009090" y2="1515.80731983839" y1="1314.79033239121" x2="-243.64296511661684" x1="-243.64296511661684"></line><line stroke-linecap="round" stroke-width="1.341021875866054" stroke="#009090" y2="890.30731983839" y1="689.2903323912101" x2="-243.64296511661684" x1="-243.64296511661684"></line><line stroke-linecap="round" stroke-width="1.341021875866054" stroke="#009090" y2="264.80731983838996" y1="63.79033239121012" x2="-243.64296511661684" x1="-243.64296511661684"></line><line stroke-linecap="round" stroke-width="1.341021875866054" stroke="#009090" y2="-360.69268016161004" y1="-561.7096676087899" x2="-243.64296511661684" x1="-243.64296511661684"></line><line stroke-linecap="round" stroke-width="1.341021875866054" stroke="#009090" y2="-986.19268016161" y1="-1187.20966760879" x2="-243.64296511661684" x1="-243.64296511661684"></line><line stroke-linecap="round" stroke-width="3.333369586325747" stroke="#009090" y2="1531.2505267657932" y1="1320.5687486705851" x2="-871.6811549374329" x1="-871.6811549374329"></line><line stroke-linecap="round" stroke-width="3.333369586325747" stroke="#009090" y2="905.7505267657932" y1="695.068748670585" x2="-871.6811549374329" x1="-871.6811549374329"></line><line stroke-linecap="round" stroke-width="3.333369586325747" stroke="#009090" y2="280.25052676579315" y1="69.56874867058505" x2="-871.6811549374329" x1="-871.6811549374329"></line><line stroke-linecap="round" stroke-width="3.333369586325747" stroke="#009090" y2="-345.24947323420685" y1="-555.931251329415" x2="-871.6811549374329" x1="-871.6811549374329"></line><line stroke-linecap="round" stroke-width="3.333369586325747" stroke="#009090" y2="-970.7494732342068" y1="-1181.4312513294149" x2="-871.6811549374329" x1="-871.6811549374329"></line></g>
      <g class="ld ld-speed-dash-2"><line stroke-linecap="round" stroke-width="2.0616815732087894" stroke="#009090" y2="1243.8903971935342" y1="1035.9271890533569" x2="-702.6769255063053" x1="-702.6769255063053"></line><line stroke-linecap="round" stroke-width="2.0616815732087894" stroke="#009090" y2="618.3903971935341" y1="410.427189053357" x2="-702.6769255063053" x1="-702.6769255063053"></line><line stroke-linecap="round" stroke-width="2.0616815732087894" stroke="#009090" y2="-7.1096028064658725" y1="-215.07281094664302" x2="-702.6769255063053" x1="-702.6769255063053"></line><line stroke-linecap="round" stroke-width="2.0616815732087894" stroke="#009090" y2="-632.6096028064659" y1="-840.572810946643" x2="-702.6769255063053" x1="-702.6769255063053"></line><line stroke-linecap="round" stroke-width="2.0616815732087894" stroke="#009090" y2="-1258.1096028064658" y1="-1466.0728109466431" x2="-702.6769255063053" x1="-702.6769255063053"></line><line stroke-linecap="round" stroke-width="1.3230428733788338" stroke="#009090" y2="1872.7907673382038" y1="1438.563211172758" x2="292.9157381535473" x1="292.9157381535473"></line><line stroke-linecap="round" stroke-width="1.3230428733788338" stroke="#009090" y2="1247.2907673382038" y1="813.063211172758" x2="292.9157381535473" x1="292.9157381535473"></line><line stroke-linecap="round" stroke-width="1.3230428733788338" stroke="#009090" y2="621.7907673382038" y1="187.56321117275792" x2="292.9157381535473" x1="292.9157381535473"></line><line stroke-linecap="round" stroke-width="1.3230428733788338" stroke="#009090" y2="-3.70923266179625" y1="-437.9367888272421" x2="292.9157381535473" x1="292.9157381535473"></line><line stroke-linecap="round" stroke-width="1.3230428733788338" stroke="#009090" y2="-629.2092326617962" y1="-1063.436788827242" x2="292.9157381535473" x1="292.9157381535473"></line><line stroke-linecap="round" stroke-width="1.0003320878929636" stroke="#009090" y2="1511.263125581575" y1="1243.4962358995451" x2="368.2459136153423" x1="368.2459136153423"></line><line stroke-linecap="round" stroke-width="1.0003320878929636" stroke="#009090" y2="885.763125581575" y1="617.9962358995452" x2="368.2459136153423" x1="368.2459136153423"></line><line stroke-linecap="round" stroke-width="1.0003320878929636" stroke="#009090" y2="260.263125581575" y1="-7.5037641004547995" x2="368.2459136153423" x1="368.2459136153423"></line><line stroke-linecap="round" stroke-width="1.0003320878929636" stroke="#009090" y2="-365.236874418425" y1="-633.0037641004548" x2="368.2459136153423" x1="368.2459136153423"></line><line stroke-linecap="round" stroke-width="1.0003320878929636" stroke="#009090" y2="-990.736874418425" y1="-1258.5037641004549" x2="368.2459136153423" x1="368.2459136153423"></line><line stroke-linecap="round" stroke-width="4.768658593817317" stroke="#009090" y2="1791.8443150284056" y1="1558.0003519176446" x2="-95.82871394404575" x1="-95.82871394404575"></line><line stroke-linecap="round" stroke-width="4.768658593817317" stroke="#009090" y2="1166.3443150284056" y1="932.5003519176446" x2="-95.82871394404575" x1="-95.82871394404575"></line><line stroke-linecap="round" stroke-width="4.768658593817317" stroke="#009090" y2="540.8443150284056" y1="307.00035191764454" x2="-95.82871394404575" x1="-95.82871394404575"></line><line stroke-linecap="round" stroke-width="4.768658593817317" stroke="#009090" y2="-84.65568497159438" y1="-318.49964808235546" x2="-95.82871394404575" x1="-95.82871394404575"></line><line stroke-linecap="round" stroke-width="4.768658593817317" stroke="#009090" y2="-710.1556849715944" y1="-943.9996480823554" x2="-95.82871394404575" x1="-95.82871394404575"></line><line stroke-linecap="round" stroke-width="2.325575587031427" stroke="#009090" y2="1494.0316328375814" y1="1368.5429439331458" x2="42.0851495440179" x1="42.0851495440179"></line><line stroke-linecap="round" stroke-width="2.325575587031427" stroke="#009090" y2="868.5316328375812" y1="743.0429439331458" x2="42.0851495440179" x1="42.0851495440179"></line><line stroke-linecap="round" stroke-width="2.325575587031427" stroke="#009090" y2="243.03163283758127" y1="117.54294393314578" x2="42.0851495440179" x1="42.0851495440179"></line><line stroke-linecap="round" stroke-width="2.325575587031427" stroke="#009090" y2="-382.46836716241876" y1="-507.9570560668542" x2="42.0851495440179" x1="42.0851495440179"></line><line stroke-linecap="round" stroke-width="2.325575587031427" stroke="#009090" y2="-1007.9683671624188" y1="-1133.4570560668542" x2="42.0851495440179" x1="42.0851495440179"></line><line stroke-linecap="round" stroke-width="0.8786008340544416" stroke="#009090" y2="1596.416921609702" y1="1177.1226168371156" x2="601.3935523218192" x1="601.3935523218192"></line><line stroke-linecap="round" stroke-width="0.8786008340544416" stroke="#009090" y2="970.9169216097021" y1="551.6226168371155" x2="601.3935523218192" x1="601.3935523218192"></line><line stroke-linecap="round" stroke-width="0.8786008340544416" stroke="#009090" y2="345.416921609702" y1="-73.87738316288447" x2="601.3935523218192" x1="601.3935523218192"></line><line stroke-linecap="round" stroke-width="0.8786008340544416" stroke="#009090" y2="-280.083078390298" y1="-699.3773831628845" x2="601.3935523218192" x1="601.3935523218192"></line><line stroke-linecap="round" stroke-width="0.8786008340544416" stroke="#009090" y2="-905.5830783902979" y1="-1324.8773831628844" x2="601.3935523218192" x1="601.3935523218192"></line><line stroke-linecap="round" stroke-width="2.235414141159905" stroke="#009090" y2="1836.6848830449549" y1="1491.2029461486197" x2="569.4775187459327" x1="569.4775187459327"></line><line stroke-linecap="round" stroke-width="2.235414141159905" stroke="#009090" y2="1211.1848830449549" y1="865.7029461486197" x2="569.4775187459327" x1="569.4775187459327"></line><line stroke-linecap="round" stroke-width="2.235414141159905" stroke="#009090" y2="585.6848830449547" y1="240.20294614861973" x2="569.4775187459327" x1="569.4775187459327"></line><line stroke-linecap="round" stroke-width="2.235414141159905" stroke="#009090" y2="-39.815116955045255" y1="-385.29705385138027" x2="569.4775187459327" x1="569.4775187459327"></line><line stroke-linecap="round" stroke-width="2.235414141159905" stroke="#009090" y2="-665.3151169550453" y1="-1010.7970538513803" x2="569.4775187459327" x1="569.4775187459327"></line><line stroke-linecap="round" stroke-width="1.4715912844550725" stroke="#009090" y2="1193.6919777374198" y1="1058.1272075389668" x2="302.4508810414265" x1="302.4508810414265"></line><line stroke-linecap="round" stroke-width="1.4715912844550725" stroke="#009090" y2="568.1919777374197" y1="432.6272075389668" x2="302.4508810414265" x1="302.4508810414265"></line><line stroke-linecap="round" stroke-width="1.4715912844550725" stroke="#009090" y2="-57.30802226258025" y1="-192.8727924610332" x2="302.4508810414265" x1="302.4508810414265"></line><line stroke-linecap="round" stroke-width="1.4715912844550725" stroke="#009090" y2="-682.8080222625803" y1="-818.3727924610332" x2="302.4508810414265" x1="302.4508810414265"></line><line stroke-linecap="round" stroke-width="1.4715912844550725" stroke="#009090" y2="-1308.3080222625802" y1="-1443.8727924610332" x2="302.4508810414265" x1="302.4508810414265"></line><line stroke-linecap="round" stroke-width="1.6694972760493478" stroke="#009090" y2="1659.2687544326145" y1="1349.7266065926055" x2="-490.3034981862612" x1="-490.3034981862612"></line><line stroke-linecap="round" stroke-width="1.6694972760493478" stroke="#009090" y2="1033.7687544326145" y1="724.2266065926055" x2="-490.3034981862612" x1="-490.3034981862612"></line><line stroke-linecap="round" stroke-width="1.6694972760493478" stroke="#009090" y2="408.26875443261457" y1="98.72660659260559" x2="-490.3034981862612" x1="-490.3034981862612"></line><line stroke-linecap="round" stroke-width="1.6694972760493478" stroke="#009090" y2="-217.23124556738543" y1="-526.7733934073945" x2="-490.3034981862612" x1="-490.3034981862612"></line><line stroke-linecap="round" stroke-width="1.6694972760493478" stroke="#009090" y2="-842.7312455673855" y1="-1152.2733934073945" x2="-490.3034981862612" x1="-490.3034981862612"></line><line stroke-linecap="round" stroke-width="3.023404491387981" stroke="#009090" y2="1856.2441442811132" y1="1514.6338751776016" x2="-318.942035151773" x1="-318.942035151773"></line><line stroke-linecap="round" stroke-width="3.023404491387981" stroke="#009090" y2="1230.7441442811132" y1="889.1338751776016" x2="-318.942035151773" x1="-318.942035151773"></line><line stroke-linecap="round" stroke-width="3.023404491387981" stroke="#009090" y2="605.2441442811132" y1="263.63387517760157" x2="-318.942035151773" x1="-318.942035151773"></line><line stroke-linecap="round" stroke-width="3.023404491387981" stroke="#009090" y2="-20.255855718886778" y1="-361.86612482239843" x2="-318.942035151773" x1="-318.942035151773"></line><line stroke-linecap="round" stroke-width="3.023404491387981" stroke="#009090" y2="-645.7558557188868" y1="-987.3661248223984" x2="-318.942035151773" x1="-318.942035151773"></line><line stroke-linecap="round" stroke-width="1.3921430499222478" stroke="#009090" y2="1298.8976487891857" y1="1127.37709630386" x2="446.93153945648174" x1="446.93153945648174"></line><line stroke-linecap="round" stroke-width="1.3921430499222478" stroke="#009090" y2="673.3976487891858" y1="501.87709630385996" x2="446.93153945648174" x1="446.93153945648174"></line><line stroke-linecap="round" stroke-width="1.3921430499222478" stroke="#009090" y2="47.897648789185794" y1="-123.62290369614004" x2="446.93153945648174" x1="446.93153945648174"></line><line stroke-linecap="round" stroke-width="1.3921430499222478" stroke="#009090" y2="-577.6023512108142" y1="-749.12290369614" x2="446.93153945648174" x1="446.93153945648174"></line><line stroke-linecap="round" stroke-width="1.3921430499222478" stroke="#009090" y2="-1203.1023512108143" y1="-1374.62290369614" x2="446.93153945648174" x1="446.93153945648174"></line><line stroke-linecap="round" stroke-width="2.8728627837618803" stroke="#009090" y2="1487.326432556375" y1="1052.0162812643077" x2="500.2030249833094" x1="500.2030249833094"></line><line stroke-linecap="round" stroke-width="2.8728627837618803" stroke="#009090" y2="861.826432556375" y1="426.51628126430785" x2="500.2030249833094" x1="500.2030249833094"></line><line stroke-linecap="round" stroke-width="2.8728627837618803" stroke="#009090" y2="236.32643255637504" y1="-198.98371873569218" x2="500.2030249833094" x1="500.2030249833094"></line><line stroke-linecap="round" stroke-width="2.8728627837618803" stroke="#009090" y2="-389.17356744362496" y1="-824.4837187356922" x2="500.2030249833094" x1="500.2030249833094"></line><line stroke-linecap="round" stroke-width="2.8728627837618803" stroke="#009090" y2="-1014.673567443625" y1="-1449.9837187356923" x2="500.2030249833094" x1="500.2030249833094"></line><line stroke-linecap="round" stroke-width="4.131502549319284" stroke="#009090" y2="1547.7897817833884" y1="1183.4749020890447" x2="324.24859319031776" x1="324.24859319031776"></line><line stroke-linecap="round" stroke-width="4.131502549319284" stroke="#009090" y2="922.2897817833884" y1="557.9749020890448" x2="324.24859319031776" x1="324.24859319031776"></line><line stroke-linecap="round" stroke-width="4.131502549319284" stroke="#009090" y2="296.7897817833884" y1="-67.52509791095522" x2="324.24859319031776" x1="324.24859319031776"></line><line stroke-linecap="round" stroke-width="4.131502549319284" stroke="#009090" y2="-328.7102182166116" y1="-693.0250979109552" x2="324.24859319031776" x1="324.24859319031776"></line><line stroke-linecap="round" stroke-width="4.131502549319284" stroke="#009090" y2="-954.2102182166116" y1="-1318.5250979109553" x2="324.24859319031776" x1="324.24859319031776"></line><line stroke-linecap="round" stroke-width="1.4053020551345186" stroke="#009090" y2="1505.1907478462874" y1="1292.386544688996" x2="-243.4294232501504" x1="-243.4294232501504"></line><line stroke-linecap="round" stroke-width="1.4053020551345186" stroke="#009090" y2="879.6907478462874" y1="666.8865446889961" x2="-243.4294232501504" x1="-243.4294232501504"></line><line stroke-linecap="round" stroke-width="1.4053020551345186" stroke="#009090" y2="254.19074784628737" y1="41.38654468899604" x2="-243.4294232501504" x1="-243.4294232501504"></line><line stroke-linecap="round" stroke-width="1.4053020551345186" stroke="#009090" y2="-371.30925215371263" y1="-584.1134553110039" x2="-243.4294232501504" x1="-243.4294232501504"></line><line stroke-linecap="round" stroke-width="1.4053020551345186" stroke="#009090" y2="-996.8092521537126" y1="-1209.613455311004" x2="-243.4294232501504" x1="-243.4294232501504"></line><line stroke-linecap="round" stroke-width="3.3215829313786056" stroke="#009090" y2="1368.0128717447728" y1="1085.519973691878" x2="768.9881986251847" x1="768.9881986251847"></line><line stroke-linecap="round" stroke-width="3.3215829313786056" stroke="#009090" y2="742.512871744773" y1="460.01997369187814" x2="768.9881986251847" x1="768.9881986251847"></line><line stroke-linecap="round" stroke-width="3.3215829313786056" stroke="#009090" y2="117.01287174477294" y1="-165.48002630812186" x2="768.9881986251847" x1="768.9881986251847"></line><line stroke-linecap="round" stroke-width="3.3215829313786056" stroke="#009090" y2="-508.48712825522705" y1="-790.9800263081219" x2="768.9881986251847" x1="768.9881986251847"></line><line stroke-linecap="round" stroke-width="3.3215829313786056" stroke="#009090" y2="-1133.9871282552272" y1="-1416.480026308122" x2="768.9881986251847" x1="768.9881986251847"></line><line stroke-linecap="round" stroke-width="0.37284908454066296" stroke="#009090" y2="1307.893337108543" y1="1142.662893289278" x2="-208.1967226387239" x1="-208.1967226387239"></line><line stroke-linecap="round" stroke-width="0.37284908454066296" stroke="#009090" y2="682.3933371085429" y1="517.1628932892778" x2="-208.1967226387239" x1="-208.1967226387239"></line><line stroke-linecap="round" stroke-width="0.37284908454066296" stroke="#009090" y2="56.89333710854295" y1="-108.33710671072215" x2="-208.1967226387239" x1="-208.1967226387239"></line><line stroke-linecap="round" stroke-width="0.37284908454066296" stroke="#009090" y2="-568.6066628914571" y1="-733.8371067107222" x2="-208.1967226387239" x1="-208.1967226387239"></line><line stroke-linecap="round" stroke-width="0.37284908454066296" stroke="#009090" y2="-1194.106662891457" y1="-1359.337106710722" x2="-208.1967226387239" x1="-208.1967226387239"></line><line stroke-linecap="round" stroke-width="3.52145035626787" stroke="#009090" y2="1189.2845817916696" y1="970.4658024178248" x2="202.2503725701994" x1="202.2503725701994"></line><line stroke-linecap="round" stroke-width="3.52145035626787" stroke="#009090" y2="563.7845817916694" y1="344.9658024178247" x2="202.2503725701994" x1="202.2503725701994"></line><line stroke-linecap="round" stroke-width="3.52145035626787" stroke="#009090" y2="-61.71541820833055" y1="-280.5341975821753" x2="202.2503725701994" x1="202.2503725701994"></line><line stroke-linecap="round" stroke-width="3.52145035626787" stroke="#009090" y2="-687.2154182083306" y1="-906.0341975821752" x2="202.2503725701994" x1="202.2503725701994"></line><line stroke-linecap="round" stroke-width="3.52145035626787" stroke="#009090" y2="-1312.7154182083304" y1="-1531.5341975821752" x2="202.2503725701994" x1="202.2503725701994"></line><line stroke-linecap="round" stroke-width="1.5766200132379804" stroke="#009090" y2="1726.763553487164" y1="1371.218773321496" x2="-496.29020969453654" x1="-496.29020969453654"></line><line stroke-linecap="round" stroke-width="1.5766200132379804" stroke="#009090" y2="1101.263553487164" y1="745.718773321496" x2="-496.29020969453654" x1="-496.29020969453654"></line><line stroke-linecap="round" stroke-width="1.5766200132379804" stroke="#009090" y2="475.763553487164" y1="120.21877332149592" x2="-496.29020969453654" x1="-496.29020969453654"></line><line stroke-linecap="round" stroke-width="1.5766200132379804" stroke="#009090" y2="-149.73644651283598" y1="-505.2812266785041" x2="-496.29020969453654" x1="-496.29020969453654"></line><line stroke-linecap="round" stroke-width="1.5766200132379804" stroke="#009090" y2="-775.236446512836" y1="-1130.781226678504" x2="-496.29020969453654" x1="-496.29020969453654"></line><line stroke-linecap="round" stroke-width="2.5464985587122153" stroke="#009090" y2="1853.2130563973258" y1="1459.5889738569776" x2="-572.2887868028904" x1="-572.2887868028904"></line><line stroke-linecap="round" stroke-width="2.5464985587122153" stroke="#009090" y2="1227.7130563973258" y1="834.0889738569776" x2="-572.2887868028904" x1="-572.2887868028904"></line><line stroke-linecap="round" stroke-width="2.5464985587122153" stroke="#009090" y2="602.2130563973258" y1="208.58897385697765" x2="-572.2887868028904" x1="-572.2887868028904"></line><line stroke-linecap="round" stroke-width="2.5464985587122153" stroke="#009090" y2="-23.286943602674228" y1="-416.91102614302235" x2="-572.2887868028904" x1="-572.2887868028904"></line><line stroke-linecap="round" stroke-width="2.5464985587122153" stroke="#009090" y2="-648.7869436026742" y1="-1042.4110261430224" x2="-572.2887868028904" x1="-572.2887868028904"></line><line stroke-linecap="round" stroke-width="1.5990406059672144" stroke="#009090" y2="1725.0090634584215" y1="1462.427870289015" x2="-218.13749227737122" x1="-218.13749227737122"></line><line stroke-linecap="round" stroke-width="1.5990406059672144" stroke="#009090" y2="1099.5090634584215" y1="836.9278702890149" x2="-218.13749227737122" x1="-218.13749227737122"></line><line stroke-linecap="round" stroke-width="1.5990406059672144" stroke="#009090" y2="474.0090634584214" y1="211.4278702890149" x2="-218.13749227737122" x1="-218.13749227737122"></line><line stroke-linecap="round" stroke-width="1.5990406059672144" stroke="#009090" y2="-151.4909365415786" y1="-414.0721297109851" x2="-218.13749227737122" x1="-218.13749227737122"></line><line stroke-linecap="round" stroke-width="1.5990406059672144" stroke="#009090" y2="-776.9909365415785" y1="-1039.572129710985" x2="-218.13749227737122" x1="-218.13749227737122"></line></g>
    </g>
    <g transform="scale(1.0000) translate(0,0)"><g class="path" style="opacity: 1; transform-origin: -589.32px -6.13px; transform: matrix3d(1, 0, 0, 0, 0, 1, 0, 0, 0, 0, 1, 0, 0, 10, 0, 1); animation: 10s linear -6.31304s infinite normal forwards running animate-x2uulkbinbj; transform-box: view-box;"><path d="M46.80-12.26L60.32 36.86L63.52 36.86L63.52 49.98L32.16 49.98L32.16 36.86L36.96 36.86L35.68 30.46L24.80 30.46L23.52 36.86L28.32 36.86L28.32 49.98L0.96 49.98L0.96 36.86L4.16 36.86L17.68-12.26L46.80-12.26 zM29.84 6.06L26.56 21.98L33.92 21.98L30.64 6.06L29.84 6.06" style="fill: rgb(255, 255, 255);" transform="translate(-621.560,-24.990)"></path></g><g class="path" style="opacity: 1; transform-origin: -538px -6.69px; transform: matrix3d(1, 0, 0, 0, 0, 1, 0, 0, 0, 0, 1, 0, 0, 10, 0, 1); animation: 10s linear -6.02609s infinite normal forwards running animate-x2uulkbinbj; transform-box: view-box;"><path d="M65.92 49.98L65.92 36.86L69.44 36.86L69.44 18.62L65.92 18.62L65.92 5.50L69.60 5.50Q69.60-4.26 74.36-8.82Q79.12-13.38 88.24-13.38L88.24-13.38Q92.64-13.38 96.12-12.74Q99.60-12.10 101.20-11.30L101.20-11.30L101.20 1.26Q96.96 0.86 93.36 0.86L93.36 0.86Q90.24 0.86 89.04 1.90Q87.84 2.94 87.84 5.50L87.84 5.50L94.08 5.50L94.08 18.62L87.84 18.62L87.84 36.86L94.08 36.86L94.08 49.98L65.92 49.98" style="fill: rgb(255, 255, 255);" transform="translate(-621.560,-24.990)"></path></g><g class="path" style="opacity: 1; transform-origin: -501.08px 2.75px; transform: matrix3d(1, 0, 0, 0, 0, 1, 0, 0, 0, 0, 1, 0, 0, 10, 0, 1); animation: 10s linear -5.73913s infinite normal forwards running animate-x2uulkbinbj; transform-box: view-box;"><path d="M120.48 51.10Q109.12 51.10 102.72 45.14Q96.32 39.18 96.32 27.74L96.32 27.74Q96.32 16.30 102.72 10.34Q109.12 4.38 120.48 4.38L120.48 4.38Q132 4.38 138.32 10.42Q144.64 16.46 144.64 27.74L144.64 27.74Q144.64 39.18 138.24 45.14Q131.84 51.10 120.48 51.10L120.48 51.10 zM120.48 36.86Q122.80 36.86 123.96 35.62Q125.12 34.38 125.12 31.74L125.12 31.74L125.12 23.74Q125.12 21.10 123.96 19.86Q122.80 18.62 120.48 18.62L120.48 18.62Q118.16 18.62 117 19.86Q115.84 21.10 115.84 23.74L115.84 23.74L115.84 31.74Q115.84 34.38 117 35.62Q118.16 36.86 120.48 36.86L120.48 36.86" style="fill: rgb(255, 255, 255);" transform="translate(-621.560,-24.990)"></path></g><g class="path" style="opacity: 1; transform-origin: -447.8px 2.19px; transform: matrix3d(1, 0, 0, 0, 0, 1, 0, 0, 0, 0, 1, 0, 0, 10, 0, 1); animation: 10s linear -5.45217s infinite normal forwards running animate-x2uulkbinbj; transform-box: view-box;"><path d="M196.80 36.86L200.32 36.86L200.32 49.98L175.04 49.98L175.04 36.86L178.40 36.86L178.40 23.74Q178.40 21.10 177.28 19.86Q176.16 18.62 173.92 18.62L173.92 18.62Q169.12 18.62 169.12 23.74L169.12 23.74L169.12 36.86L172.48 36.86L172.48 49.98L147.20 49.98L147.20 36.86L150.72 36.86L150.72 18.62L147.20 18.62L147.20 5.50L169.12 5.50L169.12 11.74Q174.88 4.38 183.52 4.38L183.52 4.38Q190.16 4.38 193.48 8.54Q196.80 12.70 196.80 19.98L196.80 19.98L196.80 36.86" style="fill: rgb(255, 255, 255);" transform="translate(-621.560,-24.990)"></path></g><g class="path" style="opacity: 1; transform-origin: -399.2px 2.75px; transform: matrix3d(1, 0, 0, 0, 0, 1, 0, 0, 0, 0, 1, 0, 0, 10, 0, 1); animation: 10s linear -5.16522s infinite normal forwards running animate-x2uulkbinbj; transform-box: view-box;"><path d="M222.32 51.10Q212.24 51.10 202.88 47.90L202.88 47.90L202.88 36.06L215.84 36.06L215.84 36.86Q215.84 40.70 220.72 40.70L220.72 40.70Q225.04 40.70 225.04 37.74L225.04 37.74Q225.04 36.14 223.80 35.34Q222.56 34.54 219.44 33.98L219.44 33.98L215.44 33.26Q202.88 31.02 202.88 19.02L202.88 19.02Q202.88 12.06 208.16 8.22Q213.44 4.38 222.40 4.38L222.40 4.38Q232.40 4.38 239.28 7.74L239.28 7.74L239.28 18.86L227.12 18.86L227.12 18.06Q227.12 16.46 226.04 15.62Q224.96 14.78 222.88 14.78L222.88 14.78Q218.88 14.78 218.88 17.34L218.88 17.34Q218.88 18.70 220 19.42Q221.12 20.14 224.08 20.78L224.08 20.78L228.64 21.66Q235.76 23.02 238.80 26.70Q241.84 30.38 241.84 36.14L241.84 36.14Q241.84 43.42 236.76 47.26Q231.68 51.10 222.32 51.10L222.32 51.10" style="fill: rgb(255, 255, 255);" transform="translate(-621.560,-24.990)"></path></g><g class="path" style="opacity: 1; transform-origin: -353.32px 2.75px; transform: matrix3d(1, 0, 0, 0, 0, 1, 0, 0, 0, 0, 1, 0, 0, 10, 0, 1); animation: 10s linear -4.87826s infinite normal forwards running animate-x2uulkbinbj; transform-box: view-box;"><path d="M268.24 51.10Q256.88 51.10 250.48 45.14Q244.08 39.18 244.08 27.74L244.08 27.74Q244.08 16.30 250.48 10.34Q256.88 4.38 268.24 4.38L268.24 4.38Q279.76 4.38 286.08 10.42Q292.40 16.46 292.40 27.74L292.40 27.74Q292.40 39.18 286 45.14Q279.60 51.10 268.24 51.10L268.24 51.10 zM268.24 36.86Q270.56 36.86 271.72 35.62Q272.88 34.38 272.88 31.74L272.88 31.74L272.88 23.74Q272.88 21.10 271.72 19.86Q270.56 18.62 268.24 18.62L268.24 18.62Q265.92 18.62 264.76 19.86Q263.60 21.10 263.60 23.74L263.60 23.74L263.60 31.74Q263.60 34.38 264.76 35.62Q265.92 36.86 268.24 36.86L268.24 36.86" style="fill: rgb(255, 255, 255);" transform="translate(-621.560,-24.990)"></path></g><g class="path" style="opacity: 1; transform-origin: -275.32px -6.13px; transform: matrix3d(1, 0, 0, 0, 0, 1, 0, 0, 0, 0, 1, 0, 0, 10, 0, 1); animation: 10s linear -4.5913s infinite normal forwards running animate-x2uulkbinbj; transform-box: view-box;"><path d="M350.16 51.10Q335.04 51.10 326.84 43.42Q318.64 35.74 318.64 18.86L318.64 18.86Q318.64-13.38 350-13.38L350-13.38Q357.60-13.38 364.12-11.54Q370.64-9.70 373.84-7.46L373.84-7.46L373.84 12.54L354.64 12.54L354.64 6.78Q354.64 3.74 353.28 2.30Q351.92 0.86 349.20 0.86L349.20 0.86Q346.48 0.86 345.12 2.30Q343.76 3.74 343.76 6.78L343.76 6.78L343.76 30.94Q343.76 33.98 345.12 35.42Q346.48 36.86 349.20 36.86L349.20 36.86Q351.92 36.86 353.28 35.42Q354.64 33.98 354.64 30.94L354.64 30.94L354.64 24.46L373.84 24.46L373.84 45.18Q370.56 47.42 364.12 49.26Q357.68 51.10 350.16 51.10L350.16 51.10" style="fill: rgb(255, 255, 255);" transform="translate(-621.560,-24.990)"></path></g><g class="path" style="opacity: 1; transform-origin: -221.52px 2.75px; transform: matrix3d(1, 0, 0, 0, 0, 1, 0, 0, 0, 0, 1, 0, 0, 10, 0, 1); animation: 10s linear -4.30435s infinite normal forwards running animate-x2uulkbinbj; transform-box: view-box;"><path d="M419.84 36.86L423.36 36.86L423.36 49.98L402.24 49.98L402.24 44.54Q400.48 47.10 397.32 49.10Q394.16 51.10 389.60 51.10L389.60 51.10Q383.60 51.10 380.16 47.90Q376.72 44.70 376.72 38.86L376.72 38.86Q376.72 23.74 402.40 23.34L402.40 23.34Q402.16 20.62 400.32 19.62Q398.48 18.62 394.08 18.62L394.08 18.62Q390.48 18.62 386.36 19.38Q382.24 20.14 378.80 21.42L378.80 21.42L378.80 6.70Q383.04 5.66 388 5.02Q392.96 4.38 397.68 4.38L397.68 4.38Q409.60 4.38 414.72 8.70Q419.84 13.02 419.84 22.06L419.84 22.06L419.84 36.86 zM402.24 31.74L402.24 31.26Q398.64 31.26 396.68 32.22Q394.72 33.18 394.72 35.42L394.72 35.42Q394.72 36.78 395.56 37.62Q396.40 38.46 397.92 38.46L397.92 38.46Q400 38.46 401.12 36.70Q402.24 34.94 402.24 31.74L402.24 31.74" style="fill: rgb(255, 255, 255);" transform="translate(-621.560,-24.990)"></path></g><g class="path" style="opacity: 1; transform-origin: -170.28px -5.57px; transform: matrix3d(1, 0, 0, 0, 0, 1, 0, 0, 0, 0, 1, 0, 0, 10, 0, 1); animation: 10s linear -4.01739s infinite normal forwards running animate-x2uulkbinbj; transform-box: view-box;"><path d="M460.24 51.10Q456.16 51.10 453 49.10Q449.84 47.10 447.84 44.54L447.84 44.54L447.84 49.98L425.92 49.98L425.92 36.86L429.44 36.86L429.44 0.86L425.92 0.86L425.92-12.26L447.84-12.26L447.84 10.94Q449.84 8.38 453 6.38Q456.16 4.38 460.24 4.38L460.24 4.38Q468.40 4.38 472.52 10.46Q476.64 16.54 476.64 27.74L476.64 27.74Q476.64 38.94 472.52 45.02Q468.40 51.10 460.24 51.10L460.24 51.10 zM452.48 36.86Q454.80 36.86 455.96 35.62Q457.12 34.38 457.12 31.74L457.12 31.74L457.12 23.74Q457.12 21.10 455.96 19.86Q454.80 18.62 452.48 18.62L452.48 18.62Q450.16 18.62 449 19.86Q447.84 21.10 447.84 23.74L447.84 23.74L447.84 31.74Q447.84 34.38 449 35.62Q450.16 36.86 452.48 36.86L452.48 36.86" style="fill: rgb(255, 255, 255);" transform="translate(-621.560,-24.990)"></path></g><g class="path" style="opacity: 1; transform-origin: -118.84px 2.75px; transform: matrix3d(1, 0, 0, 0, 0, 1, 0, 0, 0, 0, 1, 0, 0, 10, 0, 1); animation: 10s linear -3.73043s infinite normal forwards running animate-x2uulkbinbj; transform-box: view-box;"><path d="M502.72 51.10Q491.36 51.10 484.96 45.14Q478.56 39.18 478.56 27.74L478.56 27.74Q478.56 16.30 484.96 10.34Q491.36 4.38 502.72 4.38L502.72 4.38Q514.24 4.38 520.56 10.42Q526.88 16.46 526.88 27.74L526.88 27.74Q526.88 39.18 520.48 45.14Q514.08 51.10 502.72 51.10L502.72 51.10 zM502.72 36.86Q505.04 36.86 506.20 35.62Q507.36 34.38 507.36 31.74L507.36 31.74L507.36 23.74Q507.36 21.10 506.20 19.86Q505.04 18.62 502.72 18.62L502.72 18.62Q500.40 18.62 499.24 19.86Q498.08 21.10 498.08 23.74L498.08 23.74L498.08 31.74Q498.08 34.38 499.24 35.62Q500.40 36.86 502.72 36.86L502.72 36.86" style="fill: rgb(255, 255, 255);" transform="translate(-621.560,-24.990)"></path></g><g class="path" style="opacity: 1; transform-origin: -70.84px 2.75px; transform: matrix3d(1, 0, 0, 0, 0, 1, 0, 0, 0, 0, 1, 0, 0, 10, 0, 1); animation: 10s linear -3.44348s infinite normal forwards running animate-x2uulkbinbj; transform-box: view-box;"><path d="M572.32 49.98L529.12 49.98L529.12 38.06L548.64 18.62L541.52 18.62L541.52 21.50L529.60 21.50L529.60 5.50L571.60 5.50L571.60 16.94L552.56 36.86L560.24 36.86L560.24 32.38L572.32 32.38L572.32 49.98" style="fill: rgb(255, 255, 255);" transform="translate(-621.560,-24.990)"></path></g><g class="path" style="opacity: 1; transform-origin: 24.16px -6.13px; transform: matrix3d(1, 0, 0, 0, 0, 1, 0, 0, 0, 0, 1, 0, 0, 10, 0, 1); animation: 10s linear -3.15652s infinite normal forwards running animate-x2uulkbinbj; transform-box: view-box;"><path d="M667.44 0.86L667.44-12.26L693.04-12.26L693.04 0.86L689.84 0.86L677.92 49.98L654 49.98L646.72 15.42L645.92 15.42L638.24 49.98L614.32 49.98L601.60 0.86L598.40 0.86L598.40-12.26L628-12.26L628 0.86L624.96 0.86L628.08 21.26L628.88 21.26L636.48-12.26L659.52-12.26L666.56 21.26L667.36 21.26L670.48 0.86L667.44 0.86" style="fill: rgb(255, 255, 255);" transform="translate(-621.560,-24.990)"></path></g><g class="path" style="opacity: 1; transform-origin: 90.68px 2.75px; transform: matrix3d(1, 0, 0, 0, 0, 1, 0, 0, 0, 0, 1, 0, 0, 10, 0, 1); animation: 10s linear -2.86957s infinite normal forwards running animate-x2uulkbinbj; transform-box: view-box;"><path d="M713.68 51.10Q702.32 51.10 695.92 45.14Q689.52 39.18 689.52 27.74L689.52 27.74Q689.52 16.30 695.92 10.34Q702.32 4.38 713.68 4.38L713.68 4.38Q724.96 4.38 729.96 10.26Q734.96 16.14 734.96 24.86L734.96 24.86L734.96 30.62L709.04 30.62L709.04 31.10Q709.04 34.06 710.80 35.46Q712.56 36.86 716.64 36.86L716.64 36.86Q721.52 36.86 725.92 36.14Q730.32 35.42 733.60 34.30L733.60 34.30L733.60 47.10Q730.80 48.62 725.40 49.86Q720 51.10 713.68 51.10L713.68 51.10 zM709.04 21.82L718.32 21.82L718.32 20.86Q718.32 18.14 717.16 16.94Q716 15.74 713.68 15.74L713.68 15.74Q711.36 15.74 710.20 16.98Q709.04 18.22 709.04 20.86L709.04 20.86L709.04 21.82" style="fill: rgb(255, 255, 255);" transform="translate(-621.560,-24.990)"></path></g><g class="path" style="opacity: 1; transform-origin: 141.16px -5.57px; transform: matrix3d(1, 0, 0, 0, 0, 1, 0, 0, 0, 0, 1, 0, 0, 10, 0, 1); animation: 10s linear -2.58261s infinite normal forwards running animate-x2uulkbinbj; transform-box: view-box;"><path d="M771.68 51.10Q767.60 51.10 764.44 49.10Q761.28 47.10 759.28 44.54L759.28 44.54L759.28 49.98L737.36 49.98L737.36 36.86L740.88 36.86L740.88 0.86L737.36 0.86L737.36-12.26L759.28-12.26L759.28 10.94Q761.28 8.38 764.44 6.38Q767.60 4.38 771.68 4.38L771.68 4.38Q779.84 4.38 783.96 10.46Q788.08 16.54 788.08 27.74L788.08 27.74Q788.08 38.94 783.96 45.02Q779.84 51.10 771.68 51.10L771.68 51.10 zM763.92 36.86Q766.24 36.86 767.40 35.62Q768.56 34.38 768.56 31.74L768.56 31.74L768.56 23.74Q768.56 21.10 767.40 19.86Q766.24 18.62 763.92 18.62L763.92 18.62Q761.60 18.62 760.44 19.86Q759.28 21.10 759.28 23.74L759.28 23.74L759.28 31.74Q759.28 34.38 760.44 35.62Q761.60 36.86 763.92 36.86L763.92 36.86" style="fill: rgb(255, 255, 255);" transform="translate(-621.560,-24.990)"></path></g><g class="path" style="opacity: 1; transform-origin: 223.72px -6.13px; transform: matrix3d(1, 0, 0, 0, 0, 1, 0, 0, 0, 0, 1, 0, 0, 10, 0, 1); animation: 10s linear -2.29565s infinite normal forwards running animate-x2uulkbinbj; transform-box: view-box;"><path d="M814.48 49.98L814.48 36.86L818.48 36.86L818.48 0.94L814.48 0.94L814.48-12.26L846.96-12.26Q860.32-12.26 868.20-4.94Q876.08 2.38 876.08 18.86L876.08 18.86Q876.08 35.34 868.20 42.66Q860.32 49.98 846.96 49.98L846.96 49.98L814.48 49.98 zM840.88 36.86L845.52 36.86Q848.24 36.86 849.60 35.42Q850.96 33.98 850.96 30.94L850.96 30.94L850.96 6.78Q850.96 0.86 845.52 0.86L845.52 0.86L840.88 0.86L840.88 36.86" style="fill: rgb(255, 255, 255);" transform="translate(-621.560,-24.990)"></path></g><g class="path" style="opacity: 1; transform-origin: 279.48px 2.75px; transform: matrix3d(1, 0, 0, 0, 0, 1, 0, 0, 0, 0, 1, 0, 0, 10, 0, 1); animation: 10s linear -2.0087s infinite normal forwards running animate-x2uulkbinbj; transform-box: view-box;"><path d="M902.48 51.10Q891.12 51.10 884.72 45.14Q878.32 39.18 878.32 27.74L878.32 27.74Q878.32 16.30 884.72 10.34Q891.12 4.38 902.48 4.38L902.48 4.38Q913.76 4.38 918.76 10.26Q923.76 16.14 923.76 24.86L923.76 24.86L923.76 30.62L897.84 30.62L897.84 31.10Q897.84 34.06 899.60 35.46Q901.36 36.86 905.44 36.86L905.44 36.86Q910.32 36.86 914.72 36.14Q919.12 35.42 922.40 34.30L922.40 34.30L922.40 47.10Q919.60 48.62 914.20 49.86Q908.80 51.10 902.48 51.10L902.48 51.10 zM897.84 21.82L907.12 21.82L907.12 20.86Q907.12 18.14 905.96 16.94Q904.80 15.74 902.48 15.74L902.48 15.74Q900.16 15.74 899 16.98Q897.84 18.22 897.84 20.86L897.84 20.86L897.84 21.82" style="fill: rgb(255, 255, 255);" transform="translate(-621.560,-24.990)"></path></g><g class="path" style="opacity: 1; transform-origin: 329.2px 2.75px; transform: matrix3d(1, 0, 0, 0, 0, 1, 0, 0, 0, 0, 1, 0, 0, 10, 0, 1); animation: 10s linear -1.72174s infinite normal forwards running animate-x2uulkbinbj; transform-box: view-box;"><path d="M962.80 49.98L938.96 49.98L928.88 18.62L925.52 18.62L925.52 5.50L950.24 5.50L950.24 18.62L946.88 18.62L951.12 34.46L951.92 34.46L956.16 18.62L952.80 18.62L952.80 5.50L976 5.50L976 18.62L972.64 18.62L962.80 49.98" style="fill: rgb(255, 255, 255);" transform="translate(-621.560,-24.990)"></path></g><g class="path" style="opacity: 1; transform-origin: 379.08px 2.75px; transform: matrix3d(1, 0, 0, 0, 0, 1, 0, 0, 0, 0, 1, 0, 0, 10, 0, 1); animation: 10s linear -1.43478s infinite normal forwards running animate-x2uulkbinbj; transform-box: view-box;"><path d="M1002.08 51.10Q990.72 51.10 984.32 45.14Q977.92 39.18 977.92 27.74L977.92 27.74Q977.92 16.30 984.32 10.34Q990.72 4.38 1002.08 4.38L1002.08 4.38Q1013.36 4.38 1018.36 10.26Q1023.36 16.14 1023.36 24.86L1023.36 24.86L1023.36 30.62L997.44 30.62L997.44 31.10Q997.44 34.06 999.20 35.46Q1000.96 36.86 1005.04 36.86L1005.04 36.86Q1009.92 36.86 1014.32 36.14Q1018.72 35.42 1022 34.30L1022 34.30L1022 47.10Q1019.20 48.62 1013.80 49.86Q1008.40 51.10 1002.08 51.10L1002.08 51.10 zM997.44 21.82L1006.72 21.82L1006.72 20.86Q1006.72 18.14 1005.56 16.94Q1004.40 15.74 1002.08 15.74L1002.08 15.74Q999.76 15.74 998.60 16.98Q997.44 18.22 997.44 20.86L997.44 20.86L997.44 21.82" style="fill: rgb(255, 255, 255);" transform="translate(-621.560,-24.990)"></path></g><g class="path" style="opacity: 1; transform-origin: 416.92px -6.09px; transform: matrix3d(1, 0, 0, 0, 0, 1, 0, 0, 0, 0, 1, 0, 0, 10, 0, 1); animation: 10s linear -1.14783s infinite normal forwards running animate-x2uulkbinbj; transform-box: view-box;"><path d="M1051.20 50.06L1025.76 50.06L1025.76 36.86L1029.28 36.86L1029.28 0.86L1025.76 0.86L1025.76-12.26L1047.68-12.26L1047.68 36.86L1051.20 36.86L1051.20 50.06" style="fill: rgb(255, 255, 255);" transform="translate(-621.560,-24.990)"></path></g><g class="path" style="opacity: 1; transform-origin: 456.04px 2.75px; transform: matrix3d(1, 0, 0, 0, 0, 1, 0, 0, 0, 0, 1, 0, 0, 10, 0, 1); animation: 10s linear -0.86087s infinite normal forwards running animate-x2uulkbinbj; transform-box: view-box;"><path d="M1077.60 51.10Q1066.24 51.10 1059.84 45.14Q1053.44 39.18 1053.44 27.74L1053.44 27.74Q1053.44 16.30 1059.84 10.34Q1066.24 4.38 1077.60 4.38L1077.60 4.38Q1089.12 4.38 1095.44 10.42Q1101.76 16.46 1101.76 27.74L1101.76 27.74Q1101.76 39.18 1095.36 45.14Q1088.96 51.10 1077.60 51.10L1077.60 51.10 zM1077.60 36.86Q1079.92 36.86 1081.08 35.62Q1082.24 34.38 1082.24 31.74L1082.24 31.74L1082.24 23.74Q1082.24 21.10 1081.08 19.86Q1079.92 18.62 1077.60 18.62L1077.60 18.62Q1075.28 18.62 1074.12 19.86Q1072.96 21.10 1072.96 23.74L1072.96 23.74L1072.96 31.74Q1072.96 34.38 1074.12 35.62Q1075.28 36.86 1077.60 36.86L1077.60 36.86" style="fill: rgb(255, 255, 255);" transform="translate(-621.560,-24.990)"></path></g><g class="path" style="opacity: 1; transform-origin: 507.8px 11.07px; transform: matrix3d(1, 0, 0, 0, 0, 1, 0, 0, 0, 0, 1, 0, 0, 10, 0, 1); animation: 10s linear -0.573913s infinite normal forwards running animate-x2uulkbinbj; transform-box: view-box;"><path d="M1104 67.74L1104 54.62L1107.52 54.62L1107.52 18.62L1104 18.62L1104 5.50L1125.92 5.50L1125.92 10.94Q1127.92 8.38 1131.08 6.38Q1134.24 4.38 1138.32 4.38L1138.32 4.38Q1146.48 4.38 1150.60 10.46Q1154.72 16.54 1154.72 27.74L1154.72 27.74Q1154.72 38.94 1150.60 45.02Q1146.48 51.10 1138.32 51.10L1138.32 51.10Q1134.24 51.10 1131.08 49.10Q1127.92 47.10 1125.92 44.54L1125.92 44.54L1125.92 54.62L1131.44 54.62L1131.44 67.74L1104 67.74 zM1130.56 36.86Q1132.88 36.86 1134.04 35.62Q1135.20 34.38 1135.20 31.74L1135.20 31.74L1135.20 23.74Q1135.20 21.10 1134.04 19.86Q1132.88 18.62 1130.56 18.62L1130.56 18.62Q1128.24 18.62 1127.08 19.86Q1125.92 21.10 1125.92 23.74L1125.92 23.74L1125.92 31.74Q1125.92 34.38 1127.08 35.62Q1128.24 36.86 1130.56 36.86L1130.56 36.86" style="fill: rgb(255, 255, 255);" transform="translate(-621.560,-24.990)"></path></g><g class="path" style="opacity: 1; transform-origin: 557.8px 2.75px; transform: matrix3d(1, 0, 0, 0, 0, 1, 0, 0, 0, 0, 1, 0, 0, 10, 0, 1); animation: 10s linear -0.286957s infinite normal forwards running animate-x2uulkbinbj; transform-box: view-box;"><path d="M1180.80 51.10Q1169.44 51.10 1163.04 45.14Q1156.64 39.18 1156.64 27.74L1156.64 27.74Q1156.64 16.30 1163.04 10.34Q1169.44 4.38 1180.80 4.38L1180.80 4.38Q1192.08 4.38 1197.08 10.26Q1202.08 16.14 1202.08 24.86L1202.08 24.86L1202.08 30.62L1176.16 30.62L1176.16 31.10Q1176.16 34.06 1177.92 35.46Q1179.68 36.86 1183.76 36.86L1183.76 36.86Q1188.64 36.86 1193.04 36.14Q1197.44 35.42 1200.72 34.30L1200.72 34.30L1200.72 47.10Q1197.92 48.62 1192.52 49.86Q1187.12 51.10 1180.80 51.10L1180.80 51.10 zM1176.16 21.82L1185.44 21.82L1185.44 20.86Q1185.44 18.14 1184.28 16.94Q1183.12 15.74 1180.80 15.74L1180.80 15.74Q1178.48 15.74 1177.32 16.98Q1176.16 18.22 1176.16 20.86L1176.16 20.86L1176.16 21.82" style="fill: rgb(255, 255, 255);" transform="translate(-621.560,-24.990)"></path></g><g class="path" style="opacity: 1; transform-origin: 602.8px 2.19px; transform: matrix3d(1, 0, 0, 0, 0, 1, 0, 0, 0, 0, 1, 0, 0, 10, 0, 1); animation: 10s linear 0s infinite normal forwards running animate-x2uulkbinbj; transform-box: view-box;"><path d="M1238.64 4.38Q1240.24 4.38 1241.68 4.70Q1243.12 5.02 1244.08 5.50L1244.08 5.50L1244.08 20.78Q1240.80 19.42 1237.04 19.42L1237.04 19.42Q1232 19.42 1229.28 22.06Q1226.56 24.70 1226.56 29.90L1226.56 29.90L1226.56 36.86L1233.76 36.86L1233.76 49.98L1204.64 49.98L1204.64 36.86L1208.16 36.86L1208.16 18.62L1204.64 18.62L1204.64 5.50L1226.56 5.50L1226.56 11.34Q1228.80 7.98 1231.68 6.18Q1234.56 4.38 1238.64 4.38L1238.64 4.38" style="fill: rgb(255, 255, 255);" transform="translate(-621.560,-24.990)"></path></g></g><text dy="0.35em" fill="#ffffff" font-family="Alfa Slab One" font-size="80">Afonso Caboz Web Developer</text>
  </g>

</g><style type="text/css">@keyframes animate-x2uulkbinbj { 0.00% {animation-timing-function: cubic-bezier(0.59,0.02,0.79,0.52);transform: translate(0.00px,10.00px) rotate(0.00deg) scale(1.00, 1.00) skew(0deg, 0.00deg) ;opacity: 1.00;}26.00% {animation-timing-function: cubic-bezier(0.19,0.49,0.42,0.98);transform: translate(0.00px,-1.00px) rotate(0.00deg) ;}50.00% {animation-timing-function: cubic-bezier(0.59,0.02,0.79,0.52);transform: translate(0.00px,-10.00px) rotate(0.00deg) ;}76.00% {animation-timing-function: cubic-bezier(0.21,0.48,0.44,0.93);transform: translate(0.00px,1.00px) rotate(0.00deg) ;}100.00% {animation-timing-function: cubic-bezier(0.21,0.48,0.44,0.93);transform: translate(0.00px,10.00px) rotate(0.00deg) ;} }</style></svg>